<svg width="24" height="24" viewBox="0 0 24 24" fill="none" xmlns="http://www.w3.org/2000/svg">
    <path d="M7.16663 19C5.88329 19 4.84496 20.05 4.84496 21.3333C4.84496 22.6166 5.88329 23.6666 7.16663 23.6666C8.44996 23.6666 9.49996 22.6166 9.49996 21.3333C9.49996 20.05 8.44996 19 7.16663 19ZM18.8333 19C17.55 19 16.5116 20.05 16.5116 21.3333C16.5116 22.6166 17.55 23.6666 18.8333 23.6666C20.1166 23.6666 21.1666 22.6166 21.1666 21.3333C21.1666 20.05 20.1166 19 18.8333 19ZM8.44996 13.1666H17.1416C18.0166 13.1666 18.7866 12.6883 19.1833 11.965L23.5 3.78665L21.4583 2.66665L17.1416 10.8333H8.95163L3.98163 0.333313H0.166626V2.66665H2.49996L6.69996 11.5216L5.12496 14.3683C4.27329 15.9316 5.39329 17.8333 7.16663 17.8333H21.1666V15.5H7.16663L8.44996 13.1666ZM13 0.333313L17.6666 4.99998L13 9.66665L11.355 8.02165L13.1983 6.16665H8.33329V3.83331H13.1983L11.3433 1.97831L13 0.333313Z"
          fill="#FFFFFF"/>
</svg>
