<svg width="21" height="17" viewBox="0 0 21 17" fill="none" xmlns="http://www.w3.org/2000/svg">
    <path d="M17.7357 0.541994C18.0986 0.190513 18.5815 -0.00380052 19.0825 5.63355e-05C19.5836 0.00391319 20.0635 0.205639 20.4212 0.562667C20.7788 0.919694 20.9861 1.4041 20.9993 1.91367C21.0126 2.42323 20.8307 2.91811 20.4921 3.29386L10.2135 16.3718C10.0367 16.5655 9.82343 16.7209 9.58629 16.8288C9.34916 16.9366 9.09307 16.9948 8.83335 16.9997C8.57363 17.0046 8.3156 16.9561 8.0747 16.8572C7.8338 16.7584 7.61497 16.6111 7.4313 16.4242L0.614937 9.48949C0.425112 9.30954 0.272859 9.09253 0.16726 8.85142C0.0616603 8.6103 0.00487786 8.35002 0.000300682 8.0861C-0.0042765 7.82217 0.0434455 7.56001 0.140619 7.31526C0.237792 7.07051 0.382426 6.84817 0.565893 6.66152C0.74936 6.47487 0.9679 6.32772 1.20848 6.22886C1.44905 6.13 1.70674 6.08145 1.96616 6.08611C2.22558 6.09076 2.48142 6.14853 2.71842 6.25597C2.95542 6.3634 3.16872 6.5183 3.3456 6.71142L8.73996 12.1968L17.6868 0.599653C17.7029 0.579475 17.7201 0.560225 17.7383 0.541994H17.7357Z"
          fill="#FFFFFF"/>
</svg>
