<svg width="14" height="14" viewBox="0 0 14 14" fill="none" xmlns="http://www.w3.org/2000/svg">
    <path d="M10.9799 9.13398e-07C10.1803 -0.000621557 9.41306 0.316933 8.84669 0.882959C8.28032 1.44898 7.96106 2.21723 7.959 3.01905V6.36644C7.64789 6.3875 7.32978 6.40076 7 6.40076C6.67022 6.40076 6.35367 6.41402 6.041 6.43274V3.01905C6.02828 2.22418 5.70445 1.46618 5.13938 0.908579C4.57432 0.350976 3.81329 0.0384662 3.0205 0.0384662C2.22771 0.0384662 1.46668 0.350976 0.901615 0.908579C0.336545 1.46618 0.0127206 2.22418 0 3.01905V11.0194C0.0127206 11.8143 0.336545 12.5723 0.901615 13.1299C1.46668 13.6875 2.22771 14 3.0205 14C3.81329 14 4.57432 13.6875 5.13938 13.1299C5.70445 12.5723 6.02828 11.8143 6.041 11.0194V7.67202C6.35211 7.65096 6.67022 7.6377 7 7.6377C7.32978 7.6377 7.64633 7.62445 7.959 7.60573V11.0194C7.97172 11.8143 8.29555 12.5723 8.86062 13.1299C9.42569 13.6875 10.1867 14 10.9795 14C11.7723 14 12.5333 13.6875 13.0984 13.1299C13.6635 12.5723 13.9873 11.8143 14 11.0194V3.01905C13.9979 2.21736 13.6788 1.44924 13.1126 0.883234C12.5464 0.317231 11.7794 -0.000414884 10.9799 9.13398e-07V9.13398e-07ZM3.02011 1.23695C3.49202 1.23674 3.94475 1.42425 4.27895 1.75835C4.61316 2.09245 4.80154 2.54584 4.80278 3.01905V6.56376C3.91905 6.69217 3.05606 6.93683 2.23611 7.29142C1.88085 7.44777 1.54642 7.64793 1.24056 7.88728V3.01905C1.24179 2.54638 1.42975 2.09346 1.76328 1.75945C2.09681 1.42544 2.54874 1.23756 3.02011 1.23695V1.23695ZM4.80278 11.0194C4.80278 11.4935 4.61496 11.9482 4.28065 12.2834C3.94633 12.6186 3.4929 12.807 3.02011 12.807C2.54732 12.807 2.09389 12.6186 1.75958 12.2834C1.42526 11.9482 1.23744 11.4935 1.23744 11.0194V10.2169C1.23744 9.50794 1.79744 8.83643 2.73622 8.4184C3.3977 8.13224 4.09176 7.92871 4.80278 7.81241V11.0194V11.0194ZM10.9799 12.8015C10.508 12.8017 10.0553 12.6142 9.72105 12.2801C9.38684 11.946 9.19846 11.4926 9.19722 11.0194V7.4747C10.0809 7.34629 10.9439 7.10163 11.7639 6.74704C12.1192 6.59069 12.4536 6.39053 12.7594 6.15119V11.0194C12.7582 11.4921 12.5703 11.945 12.2367 12.279C11.9032 12.613 11.4513 12.8009 10.9799 12.8015V12.8015ZM11.2638 5.61539C10.6023 5.90155 9.90824 6.10508 9.19722 6.22138V3.01905C9.19722 2.54496 9.38504 2.09028 9.71935 1.75505C10.0537 1.41982 10.5071 1.23149 10.9799 1.23149C11.4527 1.23149 11.9061 1.41982 12.2404 1.75505C12.5747 2.09028 12.7626 2.54496 12.7626 3.01905V3.82158C12.7626 4.52741 12.2026 5.19891 11.2638 5.61539Z"
          fill="url(#paint0_linear_1153_781)"/>
    <defs>
        <linearGradient id="paint0_linear_1153_781" x1="0.886666" y1="12.957" x2="13.0669" y2="0.776957"
                        gradientUnits="userSpaceOnUse">
            <stop stop-color="#00AEE9"/>
            <stop offset="1" stop-color="#69FABD"/>
        </linearGradient>
    </defs>
</svg>
