<svg width="139" height="24" viewBox="0 0 139 24" fill="none" xmlns="http://www.w3.org/2000/svg">
    <path d="M6.87598 15.808C7.51712 15.808 8.04015 15.7153 8.44508 15.5297C8.86688 15.3272 9.18745 15.0657 9.40678 14.7451C9.64299 14.4077 9.80327 14.028 9.88763 13.6062C9.97199 13.1676 10.0142 12.7205 10.0142 12.2649V11.8094H13.3548V12.2649C13.3548 14.3739 12.7981 16.0021 11.6845 17.1494C10.5878 18.2798 8.98498 18.845 6.87598 18.845C4.85134 18.845 3.2485 18.2292 2.06746 16.9975C0.886419 15.7659 0.295898 13.969 0.295898 11.6069V7.65887C0.295898 6.52844 0.447746 5.51612 0.751442 4.62191C1.05514 3.71082 1.49381 2.95158 2.06746 2.34419C2.64111 1.71992 3.33286 1.24751 4.14272 0.926938C4.95257 0.589497 5.86366 0.420776 6.87598 0.420776C7.92205 0.420776 8.85001 0.572625 9.65986 0.876321C10.4697 1.18002 11.1446 1.61869 11.6845 2.19234C12.2413 2.76599 12.6546 3.45774 12.9246 4.26759C13.2114 5.07745 13.3548 5.98854 13.3548 7.00086V7.4564H10.0142V7.00086C10.0142 6.57906 9.96356 6.15726 9.86233 5.73546C9.76109 5.31366 9.59237 4.93404 9.35617 4.5966C9.11996 4.25916 8.79939 3.98921 8.39446 3.78674C7.98953 3.56741 7.48337 3.45774 6.87598 3.45774C6.3192 3.45774 5.83835 3.56741 5.43342 3.78674C5.0285 3.98921 4.69106 4.27603 4.4211 4.64721C4.15115 5.00153 3.94869 5.42333 3.81371 5.91262C3.69561 6.38503 3.63656 6.88276 3.63656 7.40579V11.86C3.63656 12.4336 3.69561 12.9651 3.81371 13.4544C3.93182 13.9268 4.11741 14.3402 4.37049 14.6945C4.62357 15.0488 4.95257 15.3272 5.3575 15.5297C5.7793 15.7153 6.28546 15.808 6.87598 15.808Z"
          fill="#EDEDED"/>
    <path d="M21.3599 15.3019V7.60825H20.9043L19.5377 11.5563H16.3489V11.2526L18.3229 5.93792H24.7005V15.3019H28.8004V18.4907H16.6526V15.3019H21.3599Z"
          fill="#EDEDED"/>
    <path d="M35.9956 5.93792H42.3732V15.3019H44.651V18.4907H42.3732V23.4004H39.0326V18.4907H31.2377V13.7834L35.9956 5.93792ZM34.1228 14.8463V15.3019H39.0326V7.60825H38.577L34.1228 14.8463Z"
          fill="#EDEDED"/>
    <path d="M55.7183 16.4407C55.7183 16.7782 55.6508 17.0988 55.5158 17.4025C55.3977 17.6893 55.229 17.9424 55.0096 18.1617C54.7903 18.3642 54.5288 18.5244 54.2251 18.6425C53.9383 18.7775 53.6346 18.845 53.314 18.845C52.9766 18.845 52.6644 18.7775 52.3776 18.6425C52.0908 18.5244 51.8377 18.3642 51.6184 18.1617C51.399 17.9424 51.2219 17.6893 51.0869 17.4025C50.9688 17.0988 50.9097 16.7782 50.9097 16.4407C50.9097 16.1033 50.9688 15.7912 51.0869 15.5044C51.2219 15.2007 51.399 14.9476 51.6184 14.7451C51.8377 14.5258 52.0908 14.3571 52.3776 14.2389C52.6644 14.104 52.9766 14.0365 53.314 14.0365C53.6346 14.0365 53.9383 14.104 54.2251 14.2389C54.5288 14.3571 54.7903 14.5258 55.0096 14.7451C55.229 14.9476 55.3977 15.2007 55.5158 15.5044C55.6508 15.7912 55.7183 16.1033 55.7183 16.4407Z"
          fill="#EDEDED"/>
    <path d="M61.6227 0.775089H67.4942L68.5065 14.0871V16.6685H69.1139V14.0871L70.1262 0.775089H75.9977V18.4907H72.9607V6.64655L73.2644 2.59727H72.657L71.341 18.4907H66.33L64.9634 2.59727H64.356L64.6597 6.64655V18.4907H61.6227V0.775089Z"
          fill="#EDEDED"/>
    <path d="M77.777 7.65887C77.777 5.36427 78.3506 3.58428 79.4979 2.31888C80.6621 1.05348 82.2649 0.420776 84.3064 0.420776C86.3479 0.420776 87.9423 1.05348 89.0896 2.31888C90.2538 3.58428 90.8359 5.36427 90.8359 7.65887V11.6069C90.8359 13.969 90.2538 15.7659 89.0896 16.9975C87.9423 18.2292 86.3479 18.845 84.3064 18.845C82.2649 18.845 80.6621 18.2292 79.4979 16.9975C78.3506 15.7659 77.777 13.969 77.777 11.6069V7.65887ZM84.3064 15.808C84.9138 15.808 85.42 15.7153 85.8249 15.5297C86.2298 15.3272 86.5588 15.0488 86.8119 14.6945C87.065 14.3402 87.2422 13.9184 87.3434 13.4291C87.4446 12.9398 87.4952 12.3999 87.4952 11.8094V7.4564C87.4952 6.89963 87.4362 6.3766 87.3181 5.88731C87.2 5.39802 87.0144 4.97622 86.7613 4.62191C86.5082 4.26759 86.1792 3.98921 85.7743 3.78674C85.3694 3.56741 84.8801 3.45774 84.3064 3.45774C83.7328 3.45774 83.2435 3.56741 82.8386 3.78674C82.4336 3.98921 82.1046 4.26759 81.8516 4.62191C81.5985 4.97622 81.4129 5.39802 81.2948 5.88731C81.1767 6.3766 81.1176 6.89963 81.1176 7.4564V11.8094C81.1176 12.3999 81.1682 12.9398 81.2695 13.4291C81.3707 13.9184 81.5479 14.3402 81.8009 14.6945C82.054 15.0488 82.383 15.3272 82.788 15.5297C83.1929 15.7153 83.699 15.808 84.3064 15.808Z"
          fill="#EDEDED"/>
    <path d="M102.207 16.8204H102.662V0.775089H106.003V18.4907H99.4736L97.3984 2.44542H96.9428V18.4907H93.6022V0.775089H100.132L102.207 16.8204Z"
          fill="#EDEDED"/>
    <path d="M109.63 0.775089H120.816V3.9639H112.971V8.01318H120.512V11.202H112.971V15.3019H121.12V18.4907H109.63V0.775089Z"
          fill="#EDEDED"/>
    <path d="M129.125 12.2649H128.365L123.279 0.775089H126.923L130.567 9.22796H131.023L134.667 0.775089H138.312L133.225 12.2649H132.465V18.4907H129.125V12.2649Z"
          fill="#EDEDED"/>
</svg>
