<svg width="234" height="40" viewBox="0 0 234 40" fill="none" xmlns="http://www.w3.org/2000/svg">
<path d="M11.1951 26.4588C12.2804 26.4588 13.1658 26.3017 13.8512 25.9876C14.5653 25.6449 15.1079 25.2022 15.4792 24.6595C15.8791 24.0883 16.1504 23.4457 16.2932 22.7316C16.436 21.9891 16.5074 21.2322 16.5074 20.4611V19.6899H22.1624V20.4611C22.1624 24.0312 21.2199 26.7873 19.3349 28.7294C17.4785 30.643 14.7652 31.5998 11.1951 31.5998C7.76779 31.5998 5.05452 30.5573 3.05526 28.4724C1.05601 26.3874 0.0563773 23.3457 0.0563773 19.3472V12.664C0.0563773 10.7504 0.313424 9.03675 0.827519 7.52302C1.34161 5.98074 2.08419 4.6955 3.05526 3.66732C4.02633 2.61057 5.19732 1.81087 6.56824 1.26821C7.93916 0.696994 9.48144 0.411385 11.1951 0.411385C12.9659 0.411385 14.5367 0.668433 15.9076 1.18253C17.2785 1.69662 18.421 2.4392 19.3349 3.41027C20.2774 4.38134 20.9772 5.55233 21.4341 6.92325C21.9197 8.29417 22.1624 9.83645 22.1624 11.5501V12.3212H16.5074V11.5501C16.5074 10.8361 16.4217 10.1221 16.2503 9.40804C16.079 8.69402 15.7934 8.0514 15.3935 7.48018C14.9937 6.90897 14.451 6.452 13.7656 6.10926C13.0801 5.73797 12.2233 5.55233 11.1951 5.55233C10.2526 5.55233 9.4386 5.73797 8.75314 6.10926C8.06768 6.452 7.49647 6.93753 7.03949 7.56586C6.58252 8.16564 6.23979 8.87966 6.0113 9.70793C5.81138 10.5076 5.71142 11.3502 5.71142 12.2356V19.7756C5.71142 20.7467 5.81138 21.6463 6.0113 22.4746C6.21123 23.2743 6.5254 23.974 6.95381 24.5738C7.38222 25.1736 7.93916 25.6449 8.62462 25.9876C9.33864 26.3017 10.1955 26.4588 11.1951 26.4588ZM35.7133 25.602V12.5783H34.9422L32.6287 19.2615H27.2307V18.7474L30.5724 9.75077H41.3683V25.602H48.3086V31H27.7448V25.602H35.7133ZM60.4886 9.75077H71.2846V25.602H75.1403V31H71.2846V39.3112H65.6295V31H52.4344V23.0315L60.4886 9.75077ZM57.3183 24.8309V25.602H65.6295V12.5783H64.8584L57.3183 24.8309ZM93.8749 27.5299C93.8749 28.1011 93.7607 28.6437 93.5322 29.1578C93.3323 29.6434 93.0467 30.0718 92.6754 30.4431C92.3041 30.7858 91.8614 31.0571 91.3473 31.257C90.8618 31.4855 90.3477 31.5998 89.805 31.5998C89.2338 31.5998 88.7054 31.4855 88.2199 31.257C87.7343 31.0571 87.3059 30.7858 86.9346 30.4431C86.5634 30.0718 86.2635 29.6434 86.035 29.1578C85.835 28.6437 85.7351 28.1011 85.7351 27.5299C85.7351 26.9586 85.835 26.4303 86.035 25.9447C86.2635 25.4306 86.5634 25.0022 86.9346 24.6595C87.3059 24.2882 87.7343 24.0026 88.2199 23.8027C88.7054 23.5742 89.2338 23.4599 89.805 23.4599C90.3477 23.4599 90.8618 23.5742 91.3473 23.8027C91.8614 24.0026 92.3041 24.2882 92.6754 24.6595C93.0467 25.0022 93.3323 25.4306 93.5322 25.9447C93.7607 26.4303 93.8749 26.9586 93.8749 27.5299ZM103.87 1.01116H113.809L115.523 23.5456V27.9154H116.551V23.5456L118.265 1.01116H128.204V31H123.063V10.9503L123.577 4.09573H122.549L120.321 31H111.838L109.525 4.09573H108.497L109.011 10.9503V31H103.87V1.01116ZM131.216 12.664C131.216 8.7797 132.187 5.76654 134.129 3.62447C136.1 1.48242 138.813 0.411385 142.269 0.411385C145.725 0.411385 148.424 1.48242 150.366 3.62447C152.336 5.76654 153.322 8.7797 153.322 12.664V19.3472C153.322 23.3457 152.336 26.3874 150.366 28.4724C148.424 30.5573 145.725 31.5998 142.269 31.5998C138.813 31.5998 136.1 30.5573 134.129 28.4724C132.187 26.3874 131.216 23.3457 131.216 19.3472V12.664ZM142.269 26.4588C143.297 26.4588 144.154 26.3017 144.839 25.9876C145.525 25.6449 146.082 25.1736 146.51 24.5738C146.938 23.974 147.238 23.26 147.41 22.4318C147.581 21.6035 147.667 20.6896 147.667 19.6899V12.3212C147.667 11.3787 147.567 10.4933 147.367 9.66508C147.167 8.83682 146.853 8.1228 146.424 7.52302C145.996 6.92325 145.439 6.452 144.754 6.10926C144.068 5.73797 143.24 5.55233 142.269 5.55233C141.298 5.55233 140.469 5.73797 139.784 6.10926C139.098 6.452 138.542 6.92325 138.113 7.52302C137.685 8.1228 137.371 8.83682 137.171 9.66508C136.971 10.4933 136.871 11.3787 136.871 12.3212V19.6899C136.871 20.6896 136.956 21.6035 137.128 22.4318C137.299 23.26 137.599 23.974 138.027 24.5738C138.456 25.1736 139.013 25.6449 139.698 25.9876C140.384 26.3017 141.241 26.4588 142.269 26.4588ZM172.571 28.1725H173.342V1.01116H178.997V31H167.944L164.431 3.83868H163.66V31H158.005V1.01116H169.058L172.571 28.1725ZM185.136 1.01116H204.072V6.40915H190.791V13.2637H203.558V18.6617H190.791V25.602H204.586V31H185.136V1.01116ZM218.137 20.4611H216.852L208.24 1.01116H214.41L220.579 15.3201H221.35L227.519 1.01116H233.688L225.077 20.4611H223.792V31H218.137V20.4611Z" fill="#EDEDED"/>
</svg>
