<svg width="120" height="120" viewBox="0 0 120 120" fill="none" xmlns="http://www.w3.org/2000/svg">
    <circle cx="60" cy="60" r="60" fill="#fd7f3a" fill-opacity="0.4"/>
    <circle cx="60.0001" cy="59.9998" r="43.7647" fill="#fd7f3a"/>
    <path d="M46.1538 43.846C46.1538 42.418 46.7211 41.0484 47.7309 40.0385C48.7407 39.0287 50.1103 38.4614 51.5384 38.4614H67.6923C69.1204 38.4614 70.49 39.0287 71.4998 40.0385C72.5096 41.0484 73.0769 42.418 73.0769 43.846V76.1537C73.0769 77.5818 72.5096 78.9514 71.4998 79.9612C70.49 80.971 69.1204 81.5383 67.6923 81.5383H51.5384C50.1103 81.5383 48.7407 80.971 47.7309 79.9612C46.7211 78.9514 46.1538 77.5818 46.1538 76.1537V43.846ZM62.3077 73.4614C62.3077 72.7474 62.024 72.0626 61.5191 71.5577C61.0142 71.0528 60.3294 70.7691 59.6153 70.7691C58.9013 70.7691 58.2165 71.0528 57.7116 71.5577C57.2067 72.0626 56.923 72.7474 56.923 73.4614C56.923 74.1755 57.2067 74.8603 57.7116 75.3652C58.2165 75.8701 58.9013 76.1537 59.6153 76.1537C60.3294 76.1537 61.0142 75.8701 61.5191 75.3652C62.024 74.8603 62.3077 74.1755 62.3077 73.4614Z"
          fill="white"/>
</svg>
