<svg width="120" height="120" viewBox="0 0 120 120" fill="none" xmlns="http://www.w3.org/2000/svg">
    <circle cx="60" cy="60" r="60" fill="#fd7f3a" fill-opacity="0.4"/>
    <circle cx="60.0001" cy="60.0001" r="43.7647" fill="#fd7f3a"/>
    <path d="M76.1999 43.4727C76.9683 42.7412 77.9908 42.3368 79.0517 42.3448C80.1125 42.3529 81.1288 42.7727 81.886 43.5158C82.6432 44.2588 83.0821 45.267 83.1102 46.3275C83.1382 47.388 82.7532 48.418 82.0363 49.2L60.2727 76.4182C59.8984 76.8213 59.4468 77.1448 58.9446 77.3693C58.4425 77.5938 57.9003 77.7148 57.3504 77.725C56.8005 77.7352 56.2541 77.6343 55.7441 77.4286C55.234 77.2228 54.7706 76.9162 54.3817 76.5273L39.949 62.0946C39.5471 61.72 39.2247 61.2684 39.0011 60.7666C38.7775 60.2648 38.6573 59.7231 38.6476 59.1738C38.6379 58.6245 38.739 58.0789 38.9447 57.5695C39.1505 57.0601 39.4567 56.5974 39.8452 56.2089C40.2336 55.8204 40.6964 55.5142 41.2058 55.3084C41.7151 55.1027 42.2608 55.0016 42.8101 55.0113C43.3593 55.021 43.901 55.1413 44.4029 55.3648C44.9047 55.5884 45.3563 55.9108 45.7308 56.3127L57.1527 67.7291L76.0963 43.5927C76.1304 43.5507 76.1668 43.5107 76.2054 43.4727H76.1999Z"
          fill="white"/>
</svg>
